<svg width="19" height="18" viewBox="0 0 19 18" fill="none" xmlns="http://www.w3.org/2000/svg">
<path d="M6.16667 9.625C5.825 9.625 5.54167 9.34167 5.54167 9C5.54167 8.65833 5.825 8.375 6.16667 8.375H8.875V5.66667C8.875 5.325 9.15833 5.04167 9.5 5.04167C9.84167 5.04167 10.125 5.325 10.125 5.66667V8.375H12.8333C13.175 8.375 13.4583 8.65833 13.4583 9C13.4583 9.34167 13.175 9.625 12.8333 9.625H10.125V12.3333C10.125 12.675 9.84167 12.9583 9.5 12.9583C9.15833 12.9583 8.875 12.675 8.875 12.3333V9.625H6.16667Z" fill="currentColor"/>
<path fill-rule="evenodd" clip-rule="evenodd" d="M9.5 17.9583C4.55833 17.9583 0.541667 13.9417 0.541667 9C0.541667 4.05833 4.55833 0.0416666 9.5 0.0416666C14.4417 0.0416666 18.4583 4.05833 18.4583 9C18.4583 13.9417 14.4417 17.9583 9.5 17.9583ZM9.5 1.29167C5.25 1.29167 1.79167 4.75 1.79167 9C1.79167 13.25 5.25 16.7083 9.5 16.7083C13.75 16.7083 17.2083 13.25 17.2083 9C17.2083 4.75 13.75 1.29167 9.5 1.29167Z" fill="currentColor"/>
</svg>
