<svg width="20" height="20" viewBox="0 0 20 20" fill="none" xmlns="http://www.w3.org/2000/svg">
<path fill-rule="evenodd" clip-rule="evenodd" d="M1.66667 10C1.66667 5.40833 5.40833 1.66667 10 1.66667C14.5917 1.66667 18.3333 5.40833 18.3333 10C18.3333 14.5917 14.5917 18.3333 10 18.3333C5.40833 18.3333 1.66667 14.5917 1.66667 10ZM12.8 12.8C13.0417 12.5583 13.0417 12.1583 12.8 11.9167L10.8833 10L12.8 8.08333C13.0417 7.84167 13.0417 7.44167 12.8 7.2C12.5583 6.95833 12.1583 6.95833 11.9167 7.2L10 9.11667L8.08333 7.2C7.84167 6.95833 7.44167 6.95833 7.2 7.2C6.95833 7.44167 6.95833 7.84167 7.2 8.08333L9.11667 10L7.2 11.9167C6.95833 12.1583 6.95833 12.5583 7.2 12.8C7.325 12.925 7.48333 12.9833 7.64167 12.9833C7.8 12.9833 7.95833 12.925 8.08333 12.8L10 10.8833L11.9167 12.8C12.0417 12.925 12.2 12.9833 12.3583 12.9833C12.5167 12.9833 12.675 12.925 12.8 12.8Z" fill="#EA1B13"/>
</svg>
