<svg width="21" height="22" viewBox="0 0 21 22" fill="none" xmlns="http://www.w3.org/2000/svg">
<path d="M5.625 11.2C5.625 11.61 5.965 11.95 6.375 11.95H13.375C13.785 11.95 14.125 11.61 14.125 11.2C14.125 10.79 13.785 10.45 13.375 10.45H6.375C5.965 10.45 5.625 10.79 5.625 11.2Z" fill="currentColor"/>
<path d="M5.625 15.2C5.625 15.61 5.965 15.95 6.375 15.95H10.755C11.165 15.95 11.505 15.61 11.505 15.2C11.505 14.79 11.165 14.45 10.755 14.45H6.375C5.965 14.45 5.625 14.79 5.625 15.2Z" fill="currentColor"/>
<path fill-rule="evenodd" clip-rule="evenodd" d="M15.0837 2.32433C14.8105 0.25 13.2489 0.25 12.375 0.25H8.375C7.49992 0.25 5.9352 0.25 5.66521 2.33284C2.09257 2.7203 0.625 4.6994 0.625 8.99993V14.9999C0.625 19.1699 1.755 21.7499 7.375 21.7499H13.375C18.995 21.7499 20.125 19.1699 20.125 14.9899V8.98993C20.125 4.69839 18.6571 2.71986 15.0837 2.32433ZM15.0822 3.83354C14.9536 4.74228 14.4384 5.75 12.375 5.75H8.375C7.52349 5.75 6.01897 5.75 5.6898 3.83094C3.32839 4.10792 2.125 5.15551 2.125 8.99993V14.9999C2.125 18.6999 2.855 20.2499 7.375 20.2499H13.375C17.895 20.2499 18.625 18.6999 18.625 14.9999V8.99993C18.625 5.16746 17.4291 4.11446 15.0822 3.83354ZM13.625 3.05262C13.6246 3.99925 13.6026 4.25 12.375 4.25H8.375C7.40101 4.25 7.1336 4.25 7.12521 3.05968C7.12617 3.03675 7.12612 3.01353 7.12501 2.99006C7.12639 1.75 7.38763 1.75 8.375 1.75H12.375C13.3598 1.75 13.6222 1.75 13.625 2.98038C13.6238 3.00465 13.6238 3.02875 13.625 3.05262Z" fill="currentColor"/>
</svg>
