<svg width="20" height="20" viewBox="0 0 20 20" fill="none" xmlns="http://www.w3.org/2000/svg">
<path d="M12.7747 13.1833C12.8747 13.25 12.983 13.275 13.0914 13.275C13.2997 13.275 13.508 13.1667 13.633 12.9667C13.808 12.6667 13.7164 12.2833 13.4164 12.1083L10.833 10.5667C10.5747 10.4167 10.3247 9.97501 10.3247 9.67501V6.25834C10.3247 5.91667 10.0414 5.63334 9.69971 5.63334C9.35804 5.63334 9.07471 5.91667 9.07471 6.25834V9.67501C9.07471 10.4167 9.54971 11.2583 10.1914 11.6417L12.7747 13.1833Z" fill="currentColor"/>
<path fill-rule="evenodd" clip-rule="evenodd" d="M1.04167 10C1.04167 14.9417 5.05833 18.9583 10 18.9583C14.9417 18.9583 18.9583 14.9417 18.9583 10C18.9583 5.05833 14.9417 1.04167 10 1.04167C5.05833 1.04167 1.04167 5.05833 1.04167 10ZM2.29167 10C2.29167 5.75 5.75 2.29167 10 2.29167C14.25 2.29167 17.7083 5.75 17.7083 10C17.7083 14.25 14.25 17.7083 10 17.7083C5.75 17.7083 2.29167 14.25 2.29167 10Z" fill="currentColor"/>
</svg>
