<svg width="20" height="20" viewBox="0 0 20 20" fill="none" xmlns="http://www.w3.org/2000/svg">
<path fill-rule="evenodd" clip-rule="evenodd" d="M12.4589 1.66667C13.7172 1.66667 14.8339 2.425 15.2922 3.6C15.7422 4.78333 15.4339 6.09167 14.5005 6.94167L11.1339 10H11.1246L14.4912 13.0583C15.4329 13.9083 15.7412 15.2167 15.2829 16.4C14.8246 17.575 13.7162 18.3333 12.4496 18.3333H7.54124C6.28291 18.3333 5.16624 17.575 4.70791 16.4C4.24957 15.2167 4.55791 13.9083 5.49957 13.0583L8.86624 10H8.87554L5.50887 6.94167C4.56721 6.09167 4.25887 4.78333 4.70887 3.6C5.16721 2.425 6.28387 1.66667 7.54221 1.66667H12.4589ZM7.91721 5.45833C7.91721 5.76667 8.16721 6.025 8.48387 6.025H11.5172C11.8255 6.025 12.0839 5.76667 12.0839 5.45833C12.0839 5.15 11.8339 4.89167 11.5172 4.89167H8.48387C8.17554 4.89167 7.91721 5.15 7.91721 5.45833ZM7.91624 14.55C7.91624 14.8583 8.16624 15.1167 8.48291 15.1167H11.5162C11.8246 15.1167 12.0829 14.8583 12.0829 14.55C12.0829 14.2417 11.8329 13.9833 11.5162 13.9833H8.48291C8.17457 13.9833 7.91624 14.2417 7.91624 14.55Z" fill="currentColor"/>
</svg>
