<svg width="20" height="20" viewBox="0 0 20 20" fill="none" xmlns="http://www.w3.org/2000/svg">
<path fill-rule="evenodd" clip-rule="evenodd" d="M1.66667 6.50833C1.66667 3.83333 3.83333 1.66667 6.50833 1.66667H13.4917C16.1667 1.66667 18.3333 3.83333 18.3333 6.50833V8.54167C18.3333 9 17.9583 9.375 17.5 9.375H2.5C2.04167 9.375 1.66667 9 1.66667 8.54167V6.50833ZM5 7.5C5.34167 7.5 5.625 7.21667 5.625 6.875V5.20833C5.625 4.86667 5.34167 4.58333 5 4.58333C4.65833 4.58333 4.375 4.86667 4.375 5.20833V6.875C4.375 7.21667 4.65833 7.5 5 7.5ZM8.33333 7.5C8.675 7.5 8.95833 7.21667 8.95833 6.875V5.20833C8.95833 4.86667 8.675 4.58333 8.33333 4.58333C7.99167 4.58333 7.70833 4.86667 7.70833 5.20833V6.875C7.70833 7.21667 7.99167 7.5 8.33333 7.5ZM11.0417 6.04167C11.0417 6.38333 11.325 6.66667 11.6667 6.66667H15C15.3417 6.66667 15.625 6.38333 15.625 6.04167C15.625 5.7 15.3417 5.41667 15 5.41667H11.6667C11.325 5.41667 11.0417 5.7 11.0417 6.04167Z" fill="currentColor"/>
<path fill-rule="evenodd" clip-rule="evenodd" d="M6.50833 18.3333C3.83333 18.3333 1.66667 16.1667 1.66667 13.4917V11.4583C1.66667 11 2.04167 10.625 2.5 10.625H17.5C17.9583 10.625 18.3333 11 18.3333 11.4583V13.4917C18.3333 16.1667 16.1667 18.3333 13.4833 18.3333H6.50833ZM15.625 14.1667C15.625 13.825 15.3417 13.5417 15 13.5417H11.6667C11.325 13.5417 11.0417 13.825 11.0417 14.1667C11.0417 14.5083 11.325 14.7917 11.6667 14.7917H15C15.3417 14.7917 15.625 14.5083 15.625 14.1667ZM8.33333 12.7083C7.99167 12.7083 7.70833 12.9917 7.70833 13.3333V15C7.70833 15.3417 7.99167 15.625 8.33333 15.625C8.675 15.625 8.95833 15.3417 8.95833 15V13.3333C8.95833 12.9917 8.675 12.7083 8.33333 12.7083ZM5 12.7083C4.65833 12.7083 4.375 12.9917 4.375 13.3333V15C4.375 15.3417 4.65833 15.625 5 15.625C5.34167 15.625 5.625 15.3417 5.625 15V13.3333C5.625 12.9917 5.34167 12.7083 5 12.7083Z" fill="currentColor"/>
</svg>
