<svg width="20" height="20" viewBox="0 0 20 20" fill="none" xmlns="http://www.w3.org/2000/svg">
<path fill-rule="evenodd" clip-rule="evenodd" d="M7.5 8.95833C6.23333 8.95833 5.20833 7.93333 5.20833 6.66667C5.20833 5.4 6.23333 4.375 7.5 4.375C8.76667 4.375 9.79167 5.4 9.79167 6.66667C9.79167 7.93333 8.76667 8.95833 7.5 8.95833ZM7.5 5.625C6.925 5.625 6.45833 6.09167 6.45833 6.66667C6.45833 7.24167 6.925 7.70833 7.5 7.70833C8.075 7.70833 8.54167 7.24167 8.54167 6.66667C8.54167 6.09167 8.075 5.625 7.5 5.625Z" fill="currentColor"/>
<path fill-rule="evenodd" clip-rule="evenodd" d="M18.9583 12.5C18.9583 17.025 17.025 18.9583 12.5 18.9583H7.5C2.975 18.9583 1.04167 17.025 1.04167 12.5V7.5C1.04167 2.975 2.975 1.04167 7.5 1.04167H12.5C17.025 1.04167 18.9583 2.975 18.9583 7.5V11.4836C18.9689 11.5497 18.969 11.6174 18.9583 11.6839V12.5ZM16.5748 10.8917L17.7083 11.8653V12.5C17.7083 16.3417 16.3417 17.7083 12.5 17.7083H7.5C5.20644 17.7083 3.79506 17.2212 3.03 16.0111L6.68314 13.5584C7.10814 13.2667 7.74148 13.3 8.12481 13.625L8.39981 13.8667C9.29148 14.625 10.6831 14.625 11.5665 13.8667L15.0331 10.8917C15.4498 10.5334 16.1581 10.5334 16.5748 10.8917ZM17.7083 10.2139L17.3915 9.94172C16.4998 9.18338 15.1081 9.18338 14.2248 9.94172L10.7581 12.9167C10.3498 13.275 9.64148 13.275 9.22481 12.9167L8.94981 12.675C8.13314 11.9834 6.89148 11.9084 5.99148 12.5167L2.53829 14.8352C2.36891 14.1867 2.29167 13.4133 2.29167 12.5V7.5C2.29167 3.65833 3.65833 2.29167 7.5 2.29167H12.5C16.3417 2.29167 17.7083 3.65833 17.7083 7.5V10.2139Z" fill="currentColor"/>
</svg>
