<svg width="25" height="24" viewBox="0 0 25 24" fill="none" xmlns="http://www.w3.org/2000/svg">
<path fill-rule="evenodd" clip-rule="evenodd" d="M12.9449 8.07997C13.2849 8.27997 13.5849 8.34999 13.8249 8.34999C14.1549 8.34999 14.3849 8.21999 14.4749 8.13999C14.6749 7.98999 15.1049 7.55998 14.8949 6.62998L14.7049 5.79997L15.3849 5.11997C15.7949 4.69997 15.9549 4.19997 15.8049 3.73997C15.6649 3.27997 15.2449 2.95996 14.6649 2.85996L13.7949 2.70997L13.3049 1.72999C12.7749 0.65999 11.4649 0.65999 10.9249 1.72999L10.4349 2.70997L9.56489 2.85996C8.98489 2.95996 8.57489 3.27997 8.42489 3.73997C8.27489 4.19997 8.42489 4.69997 8.84489 5.11997L9.52489 5.79997L9.33489 6.62998C9.12489 7.54998 9.55489 7.98998 9.75489 8.12998C9.95489 8.26998 10.4949 8.55999 11.3149 8.06999L12.1249 7.58998L12.9449 8.07997ZM12.8049 6.25999C12.6049 6.13999 12.3649 6.07997 12.1249 6.07997C11.8849 6.07997 11.6449 6.12998 11.4549 6.24998L10.8949 6.57997L11.0149 6.03999C11.1049 5.61999 10.9649 5.10997 10.6549 4.79997L10.1449 4.28999L10.7749 4.18998C11.1749 4.11998 11.5649 3.82998 11.7449 3.46998L12.1249 2.71998L12.5149 3.46998C12.6949 3.82998 13.0849 4.11998 13.4849 4.18998L14.1149 4.29997L13.6049 4.80998C13.2949 5.11998 13.1449 5.62997 13.2449 6.04997L13.3649 6.58998L12.8049 6.25999Z" fill="currentColor"/>
<path fill-rule="evenodd" clip-rule="evenodd" d="M1.375 22C1.375 22.41 1.715 22.75 2.125 22.75H22.1251C22.5351 22.75 22.8751 22.41 22.8751 22V19C22.8751 17.48 21.6451 16.25 20.1251 16.25H16.2052V12C16.2052 10.48 14.9752 9.25 13.4552 9.25H10.7852C9.26516 9.25 8.03516 10.48 8.03516 12V13.25H4.125C2.605 13.25 1.375 14.48 1.375 16V22ZM10.7952 10.75C10.1052 10.75 9.54515 11.31 9.54515 12V21.25H14.7051V17C14.7051 16.9587 14.7085 16.9181 14.7152 16.8785V12C14.7152 11.31 14.1552 10.75 13.4652 10.75H10.7952ZM20.1251 17.75C20.8151 17.75 21.3751 18.31 21.3751 19V21.25H16.2052V17.75H20.1251ZM2.875 16C2.875 15.31 3.435 14.75 4.125 14.75H8.03516V21.25H2.875V16Z" fill="currentColor"/>
</svg>
