<svg width="18" height="12" viewBox="0 0 18 12" fill="none" xmlns="http://www.w3.org/2000/svg">
<path d="M7.125 10.5833C7.125 10.925 6.84167 11.2083 6.5 11.2083H5.25C2.375 11.2083 0.0416666 8.875 0.0416666 6C0.0416666 3.125 2.375 0.791667 5.25 0.791667H6.5C6.84167 0.791667 7.125 1.075 7.125 1.41667C7.125 1.75833 6.84167 2.04167 6.5 2.04167H5.25C3.06667 2.04167 1.29167 3.81667 1.29167 6C1.29167 8.18333 3.06667 9.95833 5.25 9.95833H6.5C6.84167 9.95833 7.125 10.2417 7.125 10.5833Z" fill="currentColor"/>
<path d="M17.9585 6C17.9585 8.875 15.6252 11.2083 12.7502 11.2083H11.4919C11.1502 11.2083 10.8669 10.925 10.8669 10.5833C10.8669 10.2417 11.1502 9.95833 11.4919 9.95833H12.7502C14.9335 9.95833 16.7085 8.18333 16.7085 6C16.7085 3.81667 14.9335 2.04167 12.7502 2.04167H11.5002C11.1585 2.04167 10.8752 1.75833 10.8752 1.41667C10.8752 1.075 11.1502 0.791667 11.5002 0.791667H12.7502C15.6252 0.791667 17.9585 3.125 17.9585 6Z" fill="currentColor"/>
<path d="M5.04167 6C5.04167 6.34167 5.325 6.625 5.66667 6.625H12.3333C12.675 6.625 12.9583 6.34167 12.9583 6C12.9583 5.65833 12.675 5.375 12.3333 5.375H5.66667C5.325 5.375 5.04167 5.65833 5.04167 6Z" fill="currentColor"/>
</svg>
