<svg width="141" height="140" viewBox="0 0 141 140" fill="none" xmlns="http://www.w3.org/2000/svg">
<path fill-rule="evenodd" clip-rule="evenodd" d="M26.7501 69.9999C26.7501 45.8937 46.3938 26.25 70.5 26.25C94.6062 26.25 114.25 45.8937 114.25 69.9999C114.25 94.1061 94.6062 113.75 70.5 113.75C46.3938 113.75 26.7501 94.1061 26.7501 69.9999ZM66.6063 84.7436L91.4125 59.9374C92.6812 58.6249 92.6812 56.5687 91.4125 55.2999C90.1438 54.0312 88.0438 54.0312 86.775 55.2999L64.2875 77.7874L54.2251 67.7249C52.9563 66.4562 50.8563 66.4562 49.5876 67.7249C48.3188 68.9937 48.3188 71.0937 49.5876 72.3624L61.9688 84.7436C62.5813 85.3561 63.4125 85.7061 64.2875 85.7061C65.1625 85.7061 65.9938 85.3561 66.6063 84.7436Z" fill="#FAFBFF"/>
<circle opacity="0.3" cx="70.5" cy="70.0003" r="53.5606" stroke="#FAFBFF" stroke-opacity="0.4" stroke-width="3.18182"/>
<circle opacity="0.1" cx="70.5003" cy="70.0006" r="60.9849" stroke="#FAFBFF" stroke-opacity="0.4" stroke-width="3.18182"/>
<circle opacity="0.05" cx="70.5" cy="70" r="68.4091" stroke="#FAFBFF" stroke-opacity="0.4" stroke-width="3.18182"/>
</svg>
