<svg width="20" height="20" viewBox="0 0 20 20" fill="none" xmlns="http://www.w3.org/2000/svg">
<path fill-rule="evenodd" clip-rule="evenodd" d="M14.5833 6.66667C16.1942 6.66667 17.5 5.36083 17.5 3.75C17.5 2.13917 16.1942 0.833333 14.5833 0.833333C12.9725 0.833333 11.6667 2.13917 11.6667 3.75C11.6667 5.36083 12.9725 6.66667 14.5833 6.66667ZM14.5833 5.41667C15.5038 5.41667 16.25 4.67047 16.25 3.75C16.25 2.82953 15.5038 2.08333 14.5833 2.08333C13.6629 2.08333 12.9167 2.82953 12.9167 3.75C12.9167 4.67047 13.6629 5.41667 14.5833 5.41667Z" fill="currentColor"/>
<path fill-rule="evenodd" clip-rule="evenodd" d="M14.5833 18.3333C16.1942 18.3333 17.5 17.0275 17.5 15.4167C17.5 13.8058 16.1942 12.5 14.5833 12.5C12.9725 12.5 11.6667 13.8058 11.6667 15.4167C11.6667 17.0275 12.9725 18.3333 14.5833 18.3333ZM14.5833 17.0833C15.5038 17.0833 16.25 16.3371 16.25 15.4167C16.25 14.4962 15.5038 13.75 14.5833 13.75C13.6629 13.75 12.9167 14.4962 12.9167 15.4167C12.9167 16.3371 13.6629 17.0833 14.5833 17.0833Z" fill="currentColor"/>
<path fill-rule="evenodd" clip-rule="evenodd" d="M7.5 9.58333C7.5 11.1942 6.19416 12.5 4.58333 12.5C2.9725 12.5 1.66667 11.1942 1.66667 9.58333C1.66667 7.9725 2.9725 6.66667 4.58333 6.66667C6.19416 6.66667 7.5 7.9725 7.5 9.58333ZM6.25 9.58333C6.25 10.5038 5.50381 11.25 4.58333 11.25C3.66286 11.25 2.91667 10.5038 2.91667 9.58333C2.91667 8.66286 3.66286 7.91667 4.58333 7.91667C5.50381 7.91667 6.25 8.66286 6.25 9.58333Z" fill="currentColor"/>
<path d="M7.69475 11.2052C7.51371 11.499 7.60519 11.8841 7.89908 12.0651L10.6378 13.7522C10.9317 13.9333 11.3167 13.8418 11.4978 13.5479C11.6788 13.254 11.5873 12.869 11.2934 12.688L8.5547 11.0008C8.26081 10.8198 7.8758 10.9113 7.69475 11.2052Z" fill="currentColor"/>
<path d="M11.2936 6.17592C11.5875 5.99488 11.679 5.60987 11.498 5.31598C11.3169 5.02209 10.9319 4.93061 10.638 5.11166L7.89928 6.7988C7.60539 6.97984 7.51391 7.36485 7.69496 7.65874C7.876 7.95263 8.26101 8.04411 8.5549 7.86306L11.2936 6.17592Z" fill="currentColor"/>
</svg>
