<svg width="161" height="161" viewBox="0 0 161 161" fill="none" xmlns="http://www.w3.org/2000/svg">
<g clip-path="url(#clip0_54_3476)">
<path d="M159.834 143.749C163.693 136.113 152.664 97.9284 76.1921 97.9284C20.9946 97.9284 -4.33954 129.183 1.26134 145.022" fill="#F4F1EA"/>
<mask id="mask0_54_3476" style="mask-type:luminance" maskUnits="userSpaceOnUse" x="0" y="97" width="161" height="49">
<path d="M159.834 143.749C163.693 136.113 152.664 97.9284 76.1921 97.9284C20.9946 97.9284 -4.33954 129.183 1.26134 145.022" fill="white"/>
</mask>
<g mask="url(#mask0_54_3476)">
<ellipse opacity="0.671968" cx="64.3975" cy="119.343" rx="4.20561" ry="2.33601" fill="url(#paint0_linear_54_3476)"/>
<ellipse opacity="0.671968" cx="64.7056" cy="119.335" rx="4.20561" ry="2.33601" fill="url(#paint1_linear_54_3476)"/>
<ellipse opacity="0.671968" cx="135.5" cy="131.499" rx="3" ry="1.5" fill="url(#paint2_linear_54_3476)"/>
<ellipse opacity="0.671968" cx="85.5" cy="138.499" rx="3" ry="1.5" fill="url(#paint3_linear_54_3476)"/>
<ellipse opacity="0.671968" cx="26.5" cy="133.999" rx="5" ry="3" fill="url(#paint4_linear_54_3476)"/>
<ellipse opacity="0.671968" cx="107.323" cy="115.777" rx="6.63551" ry="3.64417" fill="url(#paint5_linear_54_3476)"/>
<ellipse opacity="0.729957" cx="31.8085" cy="106.058" rx="6.63551" ry="3.64417" fill="#F4F1EA"/>
</g>
<g opacity="0.320685">
<ellipse cx="124.601" cy="34.2377" rx="4.48598" ry="4.48513" fill="url(#paint6_linear_54_3476)"/>
<path d="M121.787 30.6806C119.861 30.4092 118.454 30.6219 118.19 31.3477C117.766 32.5116 120.442 34.5539 124.167 35.9095C127.892 37.265 131.256 37.4204 131.679 36.2565C131.946 35.5242 130.724 34.4996 129.047 33.4616" stroke="url(#paint7_linear_54_3476)" stroke-width="4.20561"/>
<path d="M129.096 34.2377C129.096 31.7607 127.088 29.7526 124.61 29.7526C122.133 29.7526 120.581 31.3363 120.26 33.1221C120.26 33.1221 122.839 34.7364 124.03 35.0834C124.41 35.1941 124.786 35.3377 125.17 35.4649C125.598 35.6073 126.035 35.7328 126.477 35.8418C126.779 35.9163 127.194 36.0315 127.581 36.1035C128.091 36.1984 128.548 36.2407 128.584 36.2407C128.647 36.2407 128.717 35.9587 128.859 35.6301C129.002 35.3014 129.096 34.2377 129.096 34.2377Z" fill="url(#paint8_linear_54_3476)"/>
</g>
<circle opacity="0.418364" cx="26.038" cy="60.6972" r="5.23077" fill="url(#paint9_linear_54_3476)"/>
<ellipse opacity="0.5" cx="82.6537" cy="105.312" rx="15.6923" ry="4.30769" fill="url(#paint10_linear_54_3476)"/>
<path d="M76.6385 16.6076L78.3734 17.239L46.2761 105.426C46.1017 105.905 45.572 106.152 45.093 105.977C44.6139 105.803 44.3669 105.273 44.5413 104.794L76.6385 16.6076Z" fill="#E3E5E8"/>
<path d="M76.5947 16.6492L90.2175 25.6247C91.3373 26.3626 92.5882 26.879 93.9025 27.146C101.015 28.5911 105.652 35.4759 104.317 42.6098L101.099 59.8144C101.084 59.894 100.971 59.8963 100.952 59.8177C99.4587 53.7959 93.7775 49.7423 87.6008 50.3252C84.7869 50.5908 81.9936 49.6412 79.9245 47.7156L68.9911 37.5401L76.5947 16.6492Z" fill="#F57C77"/>
<circle cx="77.3574" cy="16.3538" r="1.23077" transform="rotate(20 77.3574 16.3538)" fill="#D8D8D8"/>
<path d="M56.7469 69.3498C56.7469 69.3498 57.67 68.8883 57.67 69.0421C57.67 69.196 57.67 70.8883 57.67 70.8883L57.0546 71.196L56.7469 69.3498Z" fill="#FFE9E9"/>
<path d="M74.2292 100.168C74.2292 100.168 73.9189 99.0363 73.1022 98.9629C72.2855 98.8894 69.9851 101.323 69.5042 102.328C69.0234 103.333 70.3369 104.741 71.8365 103.388C73.3361 102.034 74.2292 100.168 74.2292 100.168Z" fill="#5F7293"/>
<path d="M75.1905 103.469L74.2526 100.852C73.8749 99.7984 72.4391 99.6642 71.8728 100.63C71.7598 100.823 71.6972 101.039 71.7005 101.262C71.7163 102.321 71.889 105.522 73.3892 105.954C75.1905 106.472 75.1905 103.469 75.1905 103.469Z" fill="#7A87AF"/>
<path d="M86.7646 100.168C86.7646 100.168 87.075 99.0363 87.8917 98.9629C88.7084 98.8894 91.0088 101.323 91.4897 102.328C91.9705 103.333 90.657 104.741 89.1574 103.388C87.6578 102.034 86.7646 100.168 86.7646 100.168Z" fill="#5F7293"/>
<path d="M85.8045 103.469L86.7424 100.852C87.12 99.7984 88.5559 99.6642 89.1222 100.63C89.2352 100.823 89.2978 101.039 89.2945 101.262C89.2787 102.321 89.106 105.522 87.6058 105.954C85.8045 106.472 85.8045 103.469 85.8045 103.469Z" fill="#7A87AF"/>
<path d="M75.4548 95.6112C75.4548 95.6112 74.9401 96.6219 74.9401 97.3324C74.4255 98.485 73.5777 100.036 72.1095 103.271C71.4043 104.825 72.1482 105.542 73.1118 105.867C74.5733 106.361 76.0939 105.589 77.287 104.612L80.3585 102.094L85.0318 105.953C85.8794 106.653 87.106 106.648 87.9481 105.941C88.8142 105.214 89.0404 103.949 88.5413 102.935C87.9804 101.795 87.1477 100.009 86.0055 97.3324C86.0055 96.6293 85.5565 95.955 85.5565 95.955L75.4548 95.6112Z" fill="#7A87AF"/>
<path d="M86.6542 87.611C87.4936 88.8371 87.2696 91.9028 87.2696 91.9028H84.808L85.7198 98.0325C85.8095 98.6352 85.4717 99.2189 84.8969 99.4211C83.6413 99.863 81.4466 100.566 79.9711 100.653C78.49 100.741 76.0982 100.075 74.7268 99.643C74.1139 99.4498 73.7704 98.8301 73.9567 98.2151C74.2982 97.0875 75.0107 95.0382 76.4265 91.9028C76.9401 92.5035 74.0388 91.9028 74.0388 91.9028C74.0388 91.9028 74.2199 89.1728 74.9619 87.611C75.7039 86.0492 77.4234 85.006 77.4234 85.006L81.7715 84.3456C81.7715 84.3456 83.5773 84.6983 84.5003 85.19C85.4234 85.6818 85.8148 86.3849 86.6542 87.611Z" fill="#E5E9F0"/>
<path d="M87.0362 91.8894L86.9384 94.8054L86.608 96.2646L84.3357 105.638L84.6981 106.42L84.9323 107.436L84.6981 108.082L84.0827 107.852L82.8519 106.851L82.706 106.413C82.603 106.104 82.6353 105.766 82.7951 105.482L83.2815 104.618L84.9323 95.8668L84.7662 91.9997L87.0362 91.8894Z" fill="#FDE7E6"/>
<path d="M74.1005 92L74.3662 94.8057L74.6966 96.2649L76.9689 105.639L76.6065 106.421L76.3723 107.436L76.6065 108.082L77.2219 107.852L78.4527 106.851L78.5986 106.413C78.7016 106.104 78.6693 105.766 78.5095 105.483L78.0231 104.618L76.3723 95.8672L76.5005 92L74.1005 92Z" fill="#FDE7E6"/>
<path fill-rule="evenodd" clip-rule="evenodd" d="M81.5079 81.9594H79.0842V85.2073V85.2077H79.0845C79.1022 85.2333 80.0537 86.6094 80.0537 87.0663C80.0537 87.5241 81.4869 85.2408 81.5077 85.2077H81.5079V85.2073V81.9594Z" fill="#FECECD"/>
<ellipse cx="80.1562" cy="81.4206" rx="2.14885" ry="3.2" fill="#FFE9E9"/>
<path fill-rule="evenodd" clip-rule="evenodd" d="M77.7976 81.9539C77.9695 81.344 77.9695 79.9989 78.3133 79.955C78.6572 79.9111 79.3448 80.1658 80.0324 79.6717C80.3762 79.4004 80.5481 79.3665 80.5481 79.2302C82.2672 79.5548 81.2391 80.5344 82.0953 81.6134C82.1846 81.726 82.4391 81.6134 82.4391 81.6134C82.4391 81.6134 82.4391 78.9566 82.2672 78.7195C82.0953 78.4825 81.4077 77.5279 81.0639 78.2088C81.0639 77.8684 80.3762 77.5171 79.6886 77.7778C79.001 78.0386 77.9695 78.5493 77.7976 79.2302C77.6257 79.9111 77.4538 81.273 77.7976 81.9539Z" fill="#515264"/>
</g>
<defs>
<linearGradient id="paint0_linear_54_3476" x1="64.3975" y1="117.007" x2="64.3975" y2="121.679" gradientUnits="userSpaceOnUse">
<stop stop-color="#E3DDCD"/>
<stop offset="1" stop-color="#C9BEA2"/>
</linearGradient>
<linearGradient id="paint1_linear_54_3476" x1="64.7056" y1="116.999" x2="64.7056" y2="121.671" gradientUnits="userSpaceOnUse">
<stop stop-color="#E3DDCD"/>
<stop offset="1" stop-color="#C9BEA2"/>
</linearGradient>
<linearGradient id="paint2_linear_54_3476" x1="135.5" y1="129.999" x2="135.5" y2="132.999" gradientUnits="userSpaceOnUse">
<stop stop-color="#E3DDCD"/>
<stop offset="1" stop-color="#C9BEA2"/>
</linearGradient>
<linearGradient id="paint3_linear_54_3476" x1="85.5" y1="136.999" x2="85.5" y2="139.999" gradientUnits="userSpaceOnUse">
<stop stop-color="#E3DDCD"/>
<stop offset="1" stop-color="#C9BEA2"/>
</linearGradient>
<linearGradient id="paint4_linear_54_3476" x1="26.5" y1="130.999" x2="26.5" y2="136.999" gradientUnits="userSpaceOnUse">
<stop stop-color="#E3DDCD"/>
<stop offset="1" stop-color="#C9BEA2"/>
</linearGradient>
<linearGradient id="paint5_linear_54_3476" x1="107.323" y1="112.133" x2="107.323" y2="119.421" gradientUnits="userSpaceOnUse">
<stop stop-color="#E3DDCD"/>
<stop offset="1" stop-color="#C9BEA2"/>
</linearGradient>
<linearGradient id="paint6_linear_54_3476" x1="118.473" y1="31.1493" x2="120.715" y2="38.904" gradientUnits="userSpaceOnUse">
<stop stop-color="#E3E5E8"/>
<stop offset="0.717538" stop-color="#D3D6DA"/>
<stop offset="1" stop-color="#C0C5CB"/>
</linearGradient>
<linearGradient id="paint7_linear_54_3476" x1="121.608" y1="34.3345" x2="131.119" y2="37.7963" gradientUnits="userSpaceOnUse">
<stop stop-color="#B6BCC4"/>
<stop offset="1" stop-color="#909AA7"/>
</linearGradient>
<linearGradient id="paint8_linear_54_3476" x1="122.951" y1="33.8518" x2="124.418" y2="36.8151" gradientUnits="userSpaceOnUse">
<stop stop-color="#E3E5E8"/>
<stop offset="1" stop-color="#D2D5D9"/>
</linearGradient>
<linearGradient id="paint9_linear_54_3476" x1="32.9147" y1="62.2497" x2="27.6916" y2="53.4288" gradientUnits="userSpaceOnUse">
<stop stop-color="#E3E5E8"/>
<stop offset="0.58" stop-color="#E3E5E8"/>
<stop offset="1" stop-color="#E3E5E8"/>
</linearGradient>
<linearGradient id="paint10_linear_54_3476" x1="70.8749" y1="105.822" x2="79.6889" y2="119.534" gradientUnits="userSpaceOnUse">
<stop stop-color="#C4CDD1"/>
<stop offset="1" stop-color="#C6CFD3" stop-opacity="0.01"/>
</linearGradient>
<clipPath id="clip0_54_3476">
<rect width="160" height="160" fill="white" transform="translate(0.5 0.5)"/>
</clipPath>
</defs>
</svg>
