<svg width="20" height="20" viewBox="0 0 20 20" fill="none" xmlns="http://www.w3.org/2000/svg">
<path d="M17.199 8.13233C17.774 7.72399 18.099 7.02399 18.099 6.20732V5.23233C18.099 4.04066 17.1823 2.76566 16.049 2.39066L12.3656 1.15732C11.599 0.907325 10.8323 0.998991 10.2573 1.40732C9.68229 1.82399 9.34896 2.52399 9.34896 3.33232V12.124C8.64062 11.4573 7.69063 11.0407 6.64062 11.0407C4.45729 11.0407 2.68229 12.8157 2.68229 14.999C2.68229 17.1823 4.45729 18.9573 6.64062 18.9573C8.82396 18.9573 10.599 17.1823 10.599 14.999V6.89066L15.0823 8.38233C15.374 8.48232 15.6573 8.52399 15.9406 8.52399C16.399 8.52399 16.8406 8.39899 17.199 8.13233Z" fill="currentColor"/>
</svg>
