<svg width="20" height="20" viewBox="0 0 20 20" fill="none" xmlns="http://www.w3.org/2000/svg">
<path fill-rule="evenodd" clip-rule="evenodd" d="M1.66667 10C1.66667 5.40833 5.40833 1.66667 10 1.66667C14.5917 1.66667 18.3333 5.40833 18.3333 10C18.3333 14.5917 14.5917 18.3333 10 18.3333C5.40833 18.3333 1.66667 14.5917 1.66667 10ZM9.25833 12.8083L13.9833 8.08333C14.225 7.83333 14.225 7.44167 13.9833 7.2C13.7417 6.95833 13.3417 6.95833 13.1 7.2L8.81667 11.4833L6.9 9.56667C6.65833 9.325 6.25833 9.325 6.01667 9.56667C5.775 9.80833 5.775 10.2083 6.01667 10.45L8.375 12.8083C8.49167 12.925 8.65 12.9917 8.81667 12.9917C8.98333 12.9917 9.14167 12.925 9.25833 12.8083Z" fill="currentColor"/>
</svg>
