<svg width="18" height="18" viewBox="0 0 18 18" fill="none" xmlns="http://www.w3.org/2000/svg">
<path fill-rule="evenodd" clip-rule="evenodd" d="M0.666667 9C0.666667 4.40833 4.40833 0.666667 9 0.666667C13.5917 0.666667 17.3333 4.40833 17.3333 9C17.3333 13.5917 13.5917 17.3333 9 17.3333C4.40833 17.3333 0.666667 13.5917 0.666667 9ZM12.0833 12.2833C12.3 12.2833 12.5083 12.175 12.625 11.975C12.8083 11.675 12.7083 11.2917 12.4083 11.1167L9.825 9.575C9.56667 9.425 9.31667 8.98333 9.31667 8.68333V5.26667C9.31667 4.925 9.03333 4.64167 8.69167 4.64167C8.35 4.64167 8.06667 4.925 8.06667 5.26667V8.68333C8.06667 9.425 8.54167 10.2667 9.18333 10.65L11.7667 12.1917C11.8667 12.2583 11.975 12.2833 12.0833 12.2833Z" fill="currentColor"/>
</svg>
