<svg width="20" height="20" viewBox="0 0 20 20" fill="none" xmlns="http://www.w3.org/2000/svg">
<path fill-rule="evenodd" clip-rule="evenodd" d="M3.95969 6.26102C3.95879 6.29895 3.95833 6.33695 3.95833 6.375V13.6237C3.95833 16.5654 6.66667 18.957 10 18.957C13.3333 18.957 16.0417 16.5654 16.0417 13.6237V6.375C16.0417 4.94167 15.4 3.59167 14.2417 2.56667C13.1 1.58333 11.6 1.04167 10 1.04167C8.4 1.04167 6.89167 1.58333 5.75834 2.575C4.63076 3.56467 3.99277 4.87022 3.95969 6.26102ZM10 11.4583C11.9196 11.4583 13.6768 10.7385 14.7917 9.53142V10.5404C14.7917 12.7237 12.7333 14.3737 10 14.3737C7.26667 14.3737 5.20833 12.7237 5.20833 10.5404V9.53142C6.32324 10.7385 8.08035 11.4583 10 11.4583ZM5.20833 6.375C5.20833 7 5.37499 7.58333 5.69166 8.10833C6.48332 9.40833 8.13333 10.2083 10 10.2083C11.8667 10.2083 13.5167 9.4 14.3083 8.10833C14.6333 7.58333 14.7917 7 14.7917 6.375C14.7917 5.30833 14.3083 4.29167 13.4167 3.50833C12.5083 2.725 11.3 2.29167 10 2.29167C8.78801 2.29167 7.67952 2.67757 6.83467 3.31257C6.7456 3.38021 6.65899 3.45104 6.57501 3.525C6.40345 3.6739 6.24699 3.83223 6.10621 3.99852C5.54558 4.66352 5.21337 5.47714 5.20839 6.35496L5.20833 6.375ZM5.66069 14.1472C6.74271 15.0697 8.26432 15.625 10 15.625C11.2556 15.625 12.3992 15.3344 13.3454 14.8244C13.9022 14.5252 14.3904 14.1506 14.7917 13.7154C14.7333 15.9237 12.6083 17.707 10 17.707C7.39167 17.707 5.26667 15.9237 5.20833 13.7154C5.3491 13.8669 5.50012 14.011 5.66069 14.1472Z" fill="currentColor"/>
</svg>
