<svg 
    width="20" 
    height="20" 
    viewBox="0 0 20 20" 
    fill="none" 
    xmlns="http://www.w3.org/2000/svg"
>
    <path 
        fill-rule="evenodd" 
        clip-rule="evenodd" 
        d="M9.25 18.9583C12.5083 18.9583 13.9583 17.5083 13.9583 14.25V13.9583H14.25C17.5083 13.9583 18.9583 12.5083 18.9583 9.25V5.75C18.9583 2.49167 17.5083 1.04167 14.25 1.04167H10.75C7.49167 1.04167 6.04167 2.49167 6.04167 5.75V6.04167H5.75C2.49167 6.04167 1.04167 7.49167 1.04167 10.75V14.25C1.04167 17.5083 2.49167 18.9583 5.75 18.9583H9.25ZM9.25 6.04167C12.5083 6.04167 13.9583 7.49167 13.9583 10.75V12.7083H14.25C16.8333 12.7083 17.7083 11.8333 17.7083 9.25V5.75C17.7083 3.16667 16.8333 2.29167 14.25 2.29167H10.75C8.16667 2.29167 7.29167 3.16667 7.29167 5.75V6.04167H9.25ZM12.7083 10.75C12.7083 8.16667 11.8333 7.29167 9.25 7.29167H5.75C3.16667 7.29167 2.29167 8.16667 2.29167 10.75V14.25C2.29167 16.8333 3.16667 17.7083 5.75 17.7083H9.25C11.8333 17.7083 12.7083 16.8333 12.7083 14.25V10.75Z" 
        fill="currentColor"
    />
</svg>
