<svg width="25" height="24" viewBox="0 0 25 24" fill="none" xmlns="http://www.w3.org/2000/svg">
<path d="M12.125 18C12.125 18.41 12.465 18.75 12.875 18.75C13.285 18.75 13.625 18.41 13.625 18V15C13.625 14.59 13.285 14.25 12.875 14.25C12.465 14.25 12.125 14.59 12.125 15V18Z" fill="currentColor"/>
<path fill-rule="evenodd" clip-rule="evenodd" d="M2.125 17.78C2.125 20.52 4.345 22.75 7.085 22.75H18.665C21.405 22.75 23.625 20.52 23.625 17.79V10.51C23.625 9.05997 22.695 7.27997 21.505 6.44997L15.325 2.11997C13.645 0.939974 11.055 0.999974 9.435 2.25997L4.045 6.45997C2.965 7.29997 2.125 9.00997 2.125 10.37V17.78ZM4.965 7.63997L10.355 3.43997C11.445 2.58997 13.325 2.54997 14.465 3.34997L20.645 7.67997C21.435 8.21997 22.125 9.54997 22.125 10.51V17.79C22.125 19.7 20.575 21.25 18.665 21.25H7.085C5.175 21.25 3.625 19.69 3.625 17.78V10.37C3.625 9.46997 4.255 8.19997 4.965 7.63997Z" fill="currentColor"/>
</svg>
