<svg width="21" height="20" viewBox="0 0 21 20" fill="none" xmlns="http://www.w3.org/2000/svg">
<path fill-rule="evenodd" clip-rule="evenodd" d="M5.225 17.2583C5.775 17.575 6.4 17.7333 7.05833 17.7333C7.95833 17.7333 8.94167 17.4417 9.95 16.8667L15.0917 13.9C16.8417 12.8917 17.8 11.5083 17.8 10.0083C17.8 8.50832 16.8333 7.12499 15.0917 6.11666L9.95 3.14999C8.2 2.14166 6.525 1.99999 5.225 2.74999C3.925 3.49999 3.20833 5.01666 3.20833 7.03332V12.975C3.20833 14.9833 3.925 16.5083 5.225 17.2583ZM5.85 3.82499C6.20833 3.61666 6.60833 3.51666 7.05833 3.51666C7.74167 3.51666 8.50833 3.75832 9.325 4.22499L14.4667 7.19166C15.8083 7.96666 16.55 8.95832 16.55 9.99999C16.55 11.0417 15.8083 12.0333 14.4667 12.8083L9.325 15.775C7.98333 16.55 6.75 16.7 5.85 16.175C4.95 15.65 4.45833 14.5167 4.45833 12.9667V7.03332C4.45833 5.48332 4.95 4.34166 5.85 3.82499Z" fill="#161718"/>
</svg>
