<svg width="23" height="22" viewBox="0 0 23 22" fill="none" xmlns="http://www.w3.org/2000/svg">
<path fill-rule="evenodd" clip-rule="evenodd" d="M5.59547 6.16L5.66547 6.91H5.57547C3.77547 6.85 2.36547 5.39 2.35547 3.59C2.35547 1.75 3.85547 0.25 5.68547 0.25C7.51547 0.25 9.01547 1.75 9.01547 3.58C9.01547 5.39 7.60547 6.85 5.80547 6.91L5.59547 6.16ZM5.60547 5.42C5.61546 5.41 5.65542 5.41 5.6954 5.41C5.75535 5.41 5.80551 5.41 5.86547 5.42C6.75547 5.38 7.53547 4.58 7.53547 3.59C7.53547 2.58 6.71547 1.75999 5.70547 1.75999C4.69547 1.75999 3.87547 2.58 3.87547 3.59C3.87547 4.57 4.63547 5.36 5.60547 5.42Z" fill="currentColor"/>
<path fill-rule="evenodd" clip-rule="evenodd" d="M14.1953 3.59001C14.1953 5.39001 15.6053 6.85002 17.4953 6.91002H17.6253L17.6309 6.91015C17.6324 6.9103 17.6334 6.91061 17.6341 6.91127C17.6353 6.91252 17.6353 6.91501 17.6353 6.92001C19.4353 6.86001 20.8453 5.40001 20.8553 3.59001C20.8553 1.76001 19.3553 0.26001 17.5253 0.26001C15.6953 0.26001 14.1953 1.75001 14.1953 3.59001ZM15.6953 3.58002C15.6953 2.57002 16.5153 1.75002 17.5253 1.75002C18.5453 1.75002 19.3653 2.57002 19.3653 3.58002C19.3553 4.56002 18.6053 5.36002 17.6353 5.41002C17.5453 5.40002 17.4653 5.40002 17.4553 5.41002C16.4653 5.37002 15.6953 4.57002 15.6953 3.58002Z" fill="currentColor"/>
<path d="M16.4655 14.18C16.8555 14.25 17.2455 14.28 17.6355 14.28C18.8655 14.28 20.0455 13.95 20.9555 13.35C21.8455 12.75 22.3455 11.9 22.3455 11.01C22.3455 10.11 21.8355 9.27002 20.9555 8.68002C19.7555 7.88002 18.0655 7.57003 16.4355 7.86003C16.0255 7.93003 15.7555 8.32002 15.8255 8.73002C15.8955 9.14002 16.2855 9.42002 16.6955 9.34002C17.9355 9.12002 19.2555 9.35002 20.1255 9.93002C20.5855 10.24 20.8455 10.62 20.8455 11.01C20.8455 11.4 20.5955 11.79 20.1255 12.1C19.2555 12.68 17.9555 12.91 16.7255 12.7C16.3155 12.63 15.9255 12.9 15.8555 13.31C15.7855 13.72 16.0555 14.11 16.4655 14.18Z" fill="currentColor"/>
<path d="M2.265 13.35C3.175 13.95 4.355 14.28 5.585 14.28C5.975 14.28 6.365 14.25 6.755 14.18C7.165 14.11 7.435 13.72 7.365 13.31C7.295 12.91 6.905 12.63 6.495 12.7C5.265 12.91 3.965 12.68 3.095 12.1C2.635 11.79 2.375 11.4 2.375 11.01C2.375 10.62 2.625 10.24 3.095 9.93002C3.975 9.35002 5.285 9.12002 6.525 9.34002C6.935 9.42002 7.325 9.14002 7.395 8.73002C7.465 8.32002 7.195 7.93003 6.785 7.86003C5.155 7.57003 3.465 7.88002 2.265 8.68002C1.385 9.27002 0.875 10.12 0.875 11.01C0.875 11.91 1.385 12.76 2.265 13.35Z" fill="currentColor"/>
<path fill-rule="evenodd" clip-rule="evenodd" d="M11.6301 14.3801C11.6289 14.38 11.6273 14.38 11.6253 14.38H11.4953C9.60531 14.32 8.19531 12.86 8.19531 11.06C8.19531 9.21998 9.69531 7.72998 11.5253 7.72998C13.3553 7.72998 14.8553 9.22998 14.8553 11.06C14.8453 12.87 13.4353 14.33 11.6353 14.39C11.6353 14.3884 11.6353 14.3871 11.6353 14.386C11.6352 14.3835 11.6349 14.3821 11.6341 14.3812C11.6333 14.3805 11.6321 14.3802 11.6301 14.3801ZM11.5253 9.21999C10.5153 9.21999 9.69531 10.04 9.69531 11.05C9.69531 12.04 10.4653 12.84 11.4553 12.88C11.4653 12.87 11.5453 12.87 11.6353 12.88C12.6053 12.83 13.3553 12.03 13.3653 11.05C13.3653 10.05 12.5453 9.21999 11.5253 9.21999Z" fill="currentColor"/>
<path fill-rule="evenodd" clip-rule="evenodd" d="M8.2943 20.82C9.2243 21.45 10.4243 21.76 11.6243 21.76C12.8243 21.76 14.0243 21.44 14.9543 20.82C15.8443 20.23 16.3443 19.37 16.3443 18.48C16.3443 17.58 15.8343 16.74 14.9543 16.15C13.0943 14.91 10.1643 14.91 8.2943 16.15C7.4043 16.74 6.9043 17.6 6.9043 18.49C6.9043 19.39 7.4143 20.23 8.2943 20.82ZM8.4043 18.5C8.4043 18.11 8.6543 17.72 9.1243 17.41C10.4843 16.51 12.7743 16.5 14.1143 17.41C14.5743 17.72 14.8343 18.1 14.8343 18.49C14.8343 18.88 14.5843 19.27 14.1143 19.58C12.7643 20.49 10.4743 20.49 9.1243 19.58C8.6643 19.27 8.4043 18.89 8.4043 18.5Z" fill="currentColor"/>
</svg>
