<svg width="18" height="18" viewBox="0 0 18 18" fill="none" xmlns="http://www.w3.org/2000/svg">
<path fill-rule="evenodd" clip-rule="evenodd" d="M0.666667 7.325C0.666667 3.65 3.65 0.666667 7.325 0.666667C11 0.666667 13.975 3.65 13.9833 7.325C13.9833 11 11 13.9833 7.325 13.9833C3.65 13.9833 0.666667 11 0.666667 7.325Z" fill="currentColor"/>
<path d="M12.9582 17.2655C15.1749 16.9905 16.9916 15.1739 17.2666 12.9572C17.4332 11.6155 17.0666 10.3655 16.3582 9.38219C15.9499 8.83219 15.0832 8.96552 14.8832 9.62386C14.1166 12.1322 12.1416 14.1155 9.63322 14.8739C8.96655 15.0739 8.83322 15.9405 9.39155 16.3489C10.3666 17.0655 11.6166 17.4322 12.9582 17.2655Z" fill="currentColor"/>
</svg>
