<svg width="40" height="40" viewBox="0 0 40 40" fill="none" xmlns="http://www.w3.org/2000/svg">
<circle cx="20" cy="20" r="19.5" fill="#060607" fill-opacity="0.46" stroke="white"/>
<path fill-rule="evenodd" clip-rule="evenodd" d="M14.725 27.2583C15.275 27.575 15.9 27.7333 16.5583 27.7333C17.4583 27.7333 18.4417 27.4417 19.45 26.8667L24.5917 23.9C26.3417 22.8917 27.3 21.5083 27.3 20.0083C27.3 18.5083 26.3333 17.125 24.5917 16.1167L19.45 13.15C17.7 12.1417 16.025 12 14.725 12.75C13.425 13.5 12.7083 15.0167 12.7083 17.0333V22.975C12.7083 24.9833 13.425 26.5083 14.725 27.2583ZM15.35 13.825C15.7083 13.6167 16.1083 13.5167 16.5583 13.5167C17.2417 13.5167 18.0083 13.7583 18.825 14.225L23.9667 17.1917C25.3083 17.9667 26.05 18.9583 26.05 20C26.05 21.0417 25.3083 22.0333 23.9667 22.8083L18.825 25.775C17.4833 26.55 16.25 26.7 15.35 26.175C14.45 25.65 13.9583 24.5167 13.9583 22.9667V17.0333C13.9583 15.4833 14.45 14.3417 15.35 13.825Z" fill="#F3F4F5"/>
</svg>
